<svg width="636" height="134" viewBox="0 0 636 134" fill="none" xmlns="http://www.w3.org/2000/svg">
<g filter="url(#filter0_d_27_47)">
<rect x="4" width="628" height="126" rx="50" fill="#EFEFEF"/>
<path d="M65.268 26.872C67.908 26.872 70.224 27.388 72.216 28.42C74.232 29.452 75.78 30.928 76.86 32.848C77.964 34.744 78.516 36.952 78.516 39.472C78.516 41.992 77.964 44.2 76.86 46.096C75.78 47.968 74.232 49.42 72.216 50.452C70.224 51.484 67.908 52 65.268 52H56.484V26.872H65.268ZM65.088 47.716C67.728 47.716 69.768 46.996 71.208 45.556C72.648 44.116 73.368 42.088 73.368 39.472C73.368 36.856 72.648 34.816 71.208 33.352C69.768 31.864 67.728 31.12 65.088 31.12H61.524V47.716H65.088ZM87.3287 26.872V52H82.2887V26.872H87.3287ZM113.8 52H108.76L97.3482 34.756V52H92.3082V26.836H97.3482L108.76 44.116V26.836H113.8V52ZM134.189 47.212H124.181L122.525 52H117.233L126.269 26.836H132.137L141.173 52H135.845L134.189 47.212ZM132.821 43.18L129.185 32.668L125.549 43.18H132.821ZM153.226 52.252C151.474 52.252 149.89 51.952 148.474 51.352C147.082 50.752 145.978 49.888 145.162 48.76C144.346 47.632 143.926 46.3 143.902 44.764H149.302C149.374 45.796 149.734 46.612 150.382 47.212C151.054 47.812 151.966 48.112 153.118 48.112C154.294 48.112 155.218 47.836 155.89 47.284C156.562 46.708 156.898 45.964 156.898 45.052C156.898 44.308 156.67 43.696 156.214 43.216C155.758 42.736 155.182 42.364 154.486 42.1C153.814 41.812 152.878 41.5 151.678 41.164C150.046 40.684 148.714 40.216 147.682 39.76C146.674 39.28 145.798 38.572 145.054 37.636C144.334 36.676 143.974 35.404 143.974 33.82C143.974 32.332 144.346 31.036 145.09 29.932C145.834 28.828 146.878 27.988 148.222 27.412C149.566 26.812 151.102 26.512 152.83 26.512C155.422 26.512 157.522 27.148 159.13 28.42C160.762 29.668 161.662 31.42 161.83 33.676H156.286C156.238 32.812 155.866 32.104 155.17 31.552C154.498 30.976 153.598 30.688 152.47 30.688C151.486 30.688 150.694 30.94 150.094 31.444C149.518 31.948 149.23 32.68 149.23 33.64C149.23 34.312 149.446 34.876 149.878 35.332C150.334 35.764 150.886 36.124 151.534 36.412C152.206 36.676 153.142 36.988 154.342 37.348C155.974 37.828 157.306 38.308 158.338 38.788C159.37 39.268 160.258 39.988 161.002 40.948C161.746 41.908 162.118 43.168 162.118 44.728C162.118 46.072 161.77 47.32 161.074 48.472C160.378 49.624 159.358 50.548 158.014 51.244C156.67 51.916 155.074 52.252 153.226 52.252ZM193.39 34.648C193.39 35.992 193.066 37.252 192.418 38.428C191.794 39.604 190.798 40.552 189.43 41.272C188.086 41.992 186.382 42.352 184.318 42.352H180.106V52H175.066V26.872H184.318C186.262 26.872 187.918 27.208 189.286 27.88C190.654 28.552 191.674 29.476 192.346 30.652C193.042 31.828 193.39 33.16 193.39 34.648ZM184.102 38.284C185.494 38.284 186.526 37.972 187.198 37.348C187.87 36.7 188.206 35.8 188.206 34.648C188.206 32.2 186.838 30.976 184.102 30.976H180.106V38.284H184.102ZM202.008 30.94V37.24H210.468V41.236H202.008V47.896H211.548V52H196.968V26.836H211.548V30.94H202.008ZM243.525 26.872V52H238.485V35.656L231.753 52H227.937L221.169 35.656V52H216.129V26.872H221.853L229.845 45.556L237.837 26.872H243.525ZM263.915 47.212H253.907L252.251 52H246.959L255.995 26.836H261.863L270.899 52H265.571L263.915 47.212ZM262.547 43.18L258.911 32.668L255.275 43.18H262.547ZM283.061 26.872C285.701 26.872 288.017 27.388 290.009 28.42C292.025 29.452 293.573 30.928 294.653 32.848C295.757 34.744 296.309 36.952 296.309 39.472C296.309 41.992 295.757 44.2 294.653 46.096C293.573 47.968 292.025 49.42 290.009 50.452C288.017 51.484 285.701 52 283.061 52H274.277V26.872H283.061ZM282.881 47.716C285.521 47.716 287.561 46.996 289.001 45.556C290.441 44.116 291.161 42.088 291.161 39.472C291.161 36.856 290.441 34.816 289.001 33.352C287.561 31.864 285.521 31.12 282.881 31.12H279.317V47.716H282.881ZM315.49 47.212H305.482L303.826 52H298.534L307.57 26.836H313.438L322.474 52H317.146L315.49 47.212ZM314.122 43.18L310.486 32.668L306.85 43.18H314.122ZM353.247 26.872V52H348.207V35.656L341.475 52H337.659L330.891 35.656V52H325.851V26.872H331.575L339.567 45.556L347.559 26.872H353.247ZM380.992 52L371.848 40.804V52H366.808V26.872H371.848V38.14L380.992 26.872H387.076L376.708 39.328L387.364 52H380.992ZM395.719 30.94V37.24H404.179V41.236H395.719V47.896H405.259V52H390.679V26.836H405.259V30.94H395.719ZM424.095 39.112C425.511 39.376 426.675 40.084 427.587 41.236C428.499 42.388 428.955 43.708 428.955 45.196C428.955 46.54 428.619 47.728 427.947 48.76C427.299 49.768 426.351 50.56 425.103 51.136C423.855 51.712 422.379 52 420.675 52H409.839V26.872H420.207C421.911 26.872 423.375 27.148 424.599 27.7C425.847 28.252 426.783 29.02 427.407 30.004C428.055 30.988 428.379 32.104 428.379 33.352C428.379 34.816 427.983 36.04 427.191 37.024C426.423 38.008 425.391 38.704 424.095 39.112ZM414.879 37.24H419.487C420.687 37.24 421.611 36.976 422.259 36.448C422.907 35.896 423.231 35.116 423.231 34.108C423.231 33.1 422.907 32.32 422.259 31.768C421.611 31.216 420.687 30.94 419.487 30.94H414.879V37.24ZM419.955 47.896C421.179 47.896 422.127 47.608 422.799 47.032C423.495 46.456 423.843 45.64 423.843 44.584C423.843 43.504 423.483 42.664 422.763 42.064C422.043 41.44 421.071 41.128 419.847 41.128H414.879V47.896H419.955ZM448.38 47.212H438.372L436.716 52H431.424L440.46 26.836H446.328L455.364 52H450.036L448.38 47.212ZM447.012 43.18L443.376 32.668L439.74 43.18H447.012ZM472.926 52L463.782 40.804V52H458.742V26.872H463.782V38.14L472.926 26.872H479.01L468.642 39.328L479.298 52H472.926ZM498.021 47.212H488.013L486.357 52H481.065L490.101 26.836H495.969L505.005 52H499.677L498.021 47.212ZM496.653 43.18L493.017 32.668L489.381 43.18H496.653ZM521.342 52L515.798 42.208H513.422V52H508.382V26.872H517.814C519.758 26.872 521.414 27.22 522.782 27.916C524.15 28.588 525.17 29.512 525.842 30.688C526.538 31.84 526.886 33.136 526.886 34.576C526.886 36.232 526.406 37.732 525.446 39.076C524.486 40.396 523.058 41.308 521.162 41.812L527.174 52H521.342ZM513.422 38.428H517.634C519.002 38.428 520.022 38.104 520.694 37.456C521.366 36.784 521.702 35.86 521.702 34.684C521.702 33.532 521.366 32.644 520.694 32.02C520.022 31.372 519.002 31.048 517.634 31.048H513.422V38.428ZM546.853 47.212H536.845L535.189 52H529.897L538.933 26.836H544.801L553.837 52H548.509L546.853 47.212ZM545.485 43.18L541.849 32.668L538.213 43.18H545.485ZM578.706 52H573.666L562.254 34.756V52H557.214V26.836H562.254L573.666 44.116V26.836H578.706V52Z" fill="#474B4B"/>
<path d="M144.996 101L135.3 90.664V101H133.06V78.632H135.3V89.096L144.996 78.632H147.844L137.38 89.8L147.94 101H144.996ZM150.224 92.232C150.224 90.44 150.576 88.872 151.28 87.528C152.005 86.1627 152.997 85.1173 154.256 84.392C155.536 83.6453 156.976 83.272 158.576 83.272C160.24 83.272 161.669 83.656 162.864 84.424C164.08 85.192 164.954 86.1733 165.488 87.368V83.528H167.728V101H165.488V97.128C164.933 98.3227 164.048 99.3147 162.832 100.104C161.637 100.872 160.208 101.256 158.544 101.256C156.965 101.256 155.536 100.883 154.256 100.136C152.997 99.3893 152.005 98.3333 151.28 96.968C150.576 95.6027 150.224 94.024 150.224 92.232ZM165.488 92.264C165.488 90.856 165.2 89.6187 164.624 88.552C164.048 87.4853 163.258 86.664 162.256 86.088C161.274 85.512 160.186 85.224 158.992 85.224C157.754 85.224 156.645 85.5013 155.664 86.056C154.682 86.6107 153.904 87.4213 153.328 88.488C152.773 89.5333 152.496 90.7813 152.496 92.232C152.496 93.6613 152.773 94.92 153.328 96.008C153.904 97.0747 154.682 97.896 155.664 98.472C156.645 99.0267 157.754 99.304 158.992 99.304C160.186 99.304 161.274 99.016 162.256 98.44C163.258 97.864 164.048 97.0427 164.624 95.976C165.2 94.9093 165.488 93.672 165.488 92.264ZM175.049 87.4C175.625 86.184 176.511 85.192 177.705 84.424C178.921 83.656 180.351 83.272 181.993 83.272C183.593 83.272 185.023 83.6453 186.281 84.392C187.54 85.1173 188.521 86.1627 189.225 87.528C189.951 88.872 190.313 90.44 190.313 92.232C190.313 94.024 189.951 95.6027 189.225 96.968C188.521 98.3333 187.529 99.3893 186.249 100.136C184.991 100.883 183.572 101.256 181.993 101.256C180.329 101.256 178.889 100.883 177.673 100.136C176.479 99.368 175.604 98.376 175.049 97.16V101H172.841V77.32H175.049V87.4ZM188.041 92.232C188.041 90.7813 187.753 89.5333 187.177 88.488C186.623 87.4213 185.855 86.6107 184.873 86.056C183.892 85.5013 182.783 85.224 181.545 85.224C180.351 85.224 179.252 85.512 178.249 86.088C177.268 86.664 176.489 87.4853 175.913 88.552C175.337 89.6187 175.049 90.856 175.049 92.264C175.049 93.672 175.337 94.9093 175.913 95.976C176.489 97.0427 177.268 97.864 178.249 98.44C179.252 99.016 180.351 99.304 181.545 99.304C182.783 99.304 183.892 99.0267 184.873 98.472C185.855 97.896 186.623 97.0747 187.177 96.008C187.753 94.92 188.041 93.6613 188.041 92.232ZM209.571 83.528V101H207.331V97.928C206.819 99.016 206.03 99.848 204.963 100.424C203.896 101 202.702 101.288 201.379 101.288C199.288 101.288 197.582 100.648 196.259 99.368C194.936 98.0667 194.275 96.1893 194.275 93.736V83.528H196.483V93.48C196.483 95.3787 196.952 96.8293 197.891 97.832C198.851 98.8347 200.152 99.336 201.795 99.336C203.48 99.336 204.824 98.8027 205.827 97.736C206.83 96.6693 207.331 95.1013 207.331 93.032V83.528H209.571ZM216.893 87.368C217.448 86.1947 218.322 85.224 219.517 84.456C220.733 83.6667 222.173 83.272 223.837 83.272C225.416 83.272 226.834 83.6453 228.093 84.392C229.373 85.1173 230.365 86.1627 231.069 87.528C231.794 88.872 232.157 90.44 232.157 92.232C232.157 94.024 231.794 95.6027 231.069 96.968C230.365 98.3333 229.373 99.3893 228.093 100.136C226.834 100.883 225.416 101.256 223.837 101.256C222.194 101.256 220.765 100.872 219.549 100.104C218.333 99.3147 217.448 98.3333 216.893 97.16V109.256H214.685V83.528H216.893V87.368ZM229.885 92.232C229.885 90.7813 229.597 89.5333 229.021 88.488C228.466 87.4213 227.698 86.6107 226.717 86.056C225.736 85.5013 224.626 85.224 223.389 85.224C222.194 85.224 221.096 85.512 220.093 86.088C219.112 86.664 218.333 87.4853 217.757 88.552C217.181 89.6187 216.893 90.856 216.893 92.264C216.893 93.672 217.181 94.9093 217.757 95.976C218.333 97.0427 219.112 97.864 220.093 98.44C221.096 99.016 222.194 99.304 223.389 99.304C224.626 99.304 225.736 99.0267 226.717 98.472C227.698 97.896 228.466 97.0747 229.021 96.008C229.597 94.92 229.885 93.6613 229.885 92.232ZM235.255 92.232C235.255 90.44 235.607 88.872 236.311 87.528C237.036 86.1627 238.028 85.1173 239.287 84.392C240.567 83.6453 242.007 83.272 243.607 83.272C245.271 83.272 246.7 83.656 247.895 84.424C249.111 85.192 249.985 86.1733 250.519 87.368V83.528H252.759V101H250.519V97.128C249.964 98.3227 249.079 99.3147 247.863 100.104C246.668 100.872 245.239 101.256 243.575 101.256C241.996 101.256 240.567 100.883 239.287 100.136C238.028 99.3893 237.036 98.3333 236.311 96.968C235.607 95.6027 235.255 94.024 235.255 92.232ZM250.519 92.264C250.519 90.856 250.231 89.6187 249.655 88.552C249.079 87.4853 248.289 86.664 247.287 86.088C246.305 85.512 245.217 85.224 244.023 85.224C242.785 85.224 241.676 85.5013 240.695 86.056C239.713 86.6107 238.935 87.4213 238.359 88.488C237.804 89.5333 237.527 90.7813 237.527 92.232C237.527 93.6613 237.804 94.92 238.359 96.008C238.935 97.0747 239.713 97.896 240.695 98.472C241.676 99.0267 242.785 99.304 244.023 99.304C245.217 99.304 246.305 99.016 247.287 98.44C248.289 97.864 249.079 97.0427 249.655 95.976C250.231 94.9093 250.519 93.672 250.519 92.264ZM260.785 85.416V96.264C260.785 97.3307 260.987 98.0667 261.393 98.472C261.798 98.8773 262.513 99.08 263.536 99.08H265.585V101H263.185C261.606 101 260.433 100.637 259.665 99.912C258.897 99.1653 258.513 97.9493 258.513 96.264V85.416H256.081V83.528H258.513V79.144H260.785V83.528H265.585V85.416H260.785ZM285.087 91.368C285.087 92.136 285.065 92.7227 285.023 93.128H270.527C270.591 94.4507 270.911 95.5813 271.487 96.52C272.063 97.4587 272.82 98.1733 273.759 98.664C274.697 99.1333 275.721 99.368 276.831 99.368C278.281 99.368 279.497 99.016 280.479 98.312C281.481 97.608 282.143 96.6587 282.463 95.464H284.831C284.404 97.1707 283.487 98.568 282.079 99.656C280.692 100.723 278.943 101.256 276.831 101.256C275.188 101.256 273.716 100.893 272.415 100.168C271.113 99.4213 270.089 98.376 269.343 97.032C268.617 95.6667 268.255 94.0773 268.255 92.264C268.255 90.4507 268.617 88.8613 269.343 87.496C270.068 86.1307 271.081 85.0853 272.383 84.36C273.684 83.6347 275.167 83.272 276.831 83.272C278.495 83.272 279.945 83.6347 281.183 84.36C282.441 85.0853 283.401 86.0667 284.063 87.304C284.745 88.52 285.087 89.8747 285.087 91.368ZM282.815 91.304C282.836 90.0027 282.569 88.8933 282.015 87.976C281.481 87.0587 280.745 86.3653 279.807 85.896C278.868 85.4267 277.844 85.192 276.735 85.192C275.071 85.192 273.652 85.7253 272.479 86.792C271.305 87.8587 270.655 89.3627 270.527 91.304H282.815ZM297.377 83.208C299.468 83.208 301.174 83.8587 302.497 85.16C303.82 86.44 304.481 88.3067 304.481 90.76V101H302.273V91.016C302.273 89.1173 301.793 87.6667 300.833 86.664C299.894 85.6613 298.604 85.16 296.961 85.16C295.276 85.16 293.932 85.6933 292.929 86.76C291.926 87.8267 291.425 89.3947 291.425 91.464V101H289.185V83.528H291.425V86.504C291.98 85.4373 292.78 84.6267 293.825 84.072C294.87 83.496 296.054 83.208 297.377 83.208ZM328.68 89.448C329.939 89.6827 331.006 90.3227 331.88 91.368C332.755 92.4133 333.192 93.6293 333.192 95.016C333.192 96.1467 332.904 97.1707 332.328 98.088C331.774 98.984 330.952 99.6987 329.864 100.232C328.776 100.744 327.475 101 325.96 101H318.216V78.632H325.736C327.998 78.632 329.715 79.1547 330.888 80.2C332.083 81.2453 332.68 82.6 332.68 84.264C332.68 85.6507 332.307 86.7813 331.56 87.656C330.814 88.5093 329.854 89.1067 328.68 89.448ZM320.456 88.52H325.672C327.187 88.52 328.35 88.168 329.16 87.464C329.992 86.7387 330.408 85.7467 330.408 84.488C330.408 83.2507 329.992 82.28 329.16 81.576C328.35 80.872 327.155 80.52 325.576 80.52H320.456V88.52ZM325.8 99.112C327.422 99.112 328.68 98.728 329.576 97.96C330.494 97.192 330.952 96.136 330.952 94.792C330.952 93.448 330.472 92.3813 329.512 91.592C328.574 90.7813 327.304 90.376 325.704 90.376H320.456V99.112H325.8ZM336.286 92.232C336.286 90.44 336.638 88.872 337.342 87.528C338.067 86.1627 339.059 85.1173 340.318 84.392C341.598 83.6453 343.038 83.272 344.638 83.272C346.302 83.272 347.731 83.656 348.926 84.424C350.142 85.192 351.017 86.1733 351.55 87.368V83.528H353.79V101H351.55V97.128C350.995 98.3227 350.11 99.3147 348.894 100.104C347.699 100.872 346.27 101.256 344.606 101.256C343.027 101.256 341.598 100.883 340.318 100.136C339.059 99.3893 338.067 98.3333 337.342 96.968C336.638 95.6027 336.286 94.024 336.286 92.232ZM351.55 92.264C351.55 90.856 351.262 89.6187 350.686 88.552C350.11 87.4853 349.321 86.664 348.318 86.088C347.337 85.512 346.249 85.224 345.054 85.224C343.817 85.224 342.707 85.5013 341.726 86.056C340.745 86.6107 339.966 87.4213 339.39 88.488C338.835 89.5333 338.558 90.7813 338.558 92.232C338.558 93.6613 338.835 94.92 339.39 96.008C339.966 97.0747 340.745 97.896 341.726 98.472C342.707 99.0267 343.817 99.304 345.054 99.304C346.249 99.304 347.337 99.016 348.318 98.44C349.321 97.864 350.11 97.0427 350.686 95.976C351.262 94.9093 351.55 93.672 351.55 92.264ZM361.144 86.632C361.634 85.544 362.381 84.7013 363.384 84.104C364.408 83.5067 365.656 83.208 367.128 83.208V85.544H366.52C364.898 85.544 363.597 85.9813 362.616 86.856C361.634 87.7307 361.144 89.192 361.144 91.24V101H358.904V83.528H361.144V86.632ZM371.618 80.232C371.17 80.232 370.786 80.072 370.466 79.752C370.146 79.432 369.986 79.0373 369.986 78.568C369.986 78.0987 370.146 77.7147 370.466 77.416C370.786 77.096 371.17 76.936 371.618 76.936C372.066 76.936 372.45 77.096 372.77 77.416C373.09 77.7147 373.25 78.0987 373.25 78.568C373.25 79.0373 373.09 79.432 372.77 79.752C372.45 80.072 372.066 80.232 371.618 80.232ZM372.738 83.528V101H370.498V83.528H372.738ZM380.722 85.416V96.264C380.722 97.3307 380.925 98.0667 381.33 98.472C381.735 98.8773 382.45 99.08 383.474 99.08H385.522V101H383.122C381.543 101 380.37 100.637 379.602 99.912C378.834 99.1653 378.45 97.9493 378.45 96.264V85.416H376.018V83.528H378.45V79.144H380.722V83.528H385.522V85.416H380.722ZM396.864 101.256C395.222 101.256 393.739 100.893 392.416 100.168C391.115 99.4213 390.08 98.376 389.312 97.032C388.566 95.6667 388.192 94.0773 388.192 92.264C388.192 90.4507 388.576 88.872 389.344 87.528C390.112 86.1627 391.158 85.1173 392.48 84.392C393.803 83.6453 395.286 83.272 396.928 83.272C398.571 83.272 400.054 83.6453 401.376 84.392C402.72 85.1173 403.766 86.1627 404.512 87.528C405.28 88.872 405.664 90.4507 405.664 92.264C405.664 94.056 405.28 95.6347 404.512 97C403.744 98.3653 402.688 99.4213 401.344 100.168C400 100.893 398.507 101.256 396.864 101.256ZM396.864 99.304C398.016 99.304 399.083 99.048 400.064 98.536C401.046 98.0027 401.835 97.2133 402.432 96.168C403.051 95.1013 403.36 93.8 403.36 92.264C403.36 90.728 403.062 89.4373 402.464 88.392C401.867 87.3253 401.078 86.536 400.096 86.024C399.115 85.4907 398.048 85.224 396.896 85.224C395.744 85.224 394.678 85.4907 393.696 86.024C392.715 86.536 391.926 87.3253 391.328 88.392C390.752 89.4373 390.464 90.728 390.464 92.264C390.464 93.8 390.752 95.1013 391.328 96.168C391.926 97.2133 392.704 98.0027 393.664 98.536C394.646 99.048 395.712 99.304 396.864 99.304ZM430.465 101L420.769 90.664V101H418.529V78.632H420.769V89.096L430.465 78.632H433.313L422.849 89.8L433.409 101H430.465ZM451.852 83.528V101H449.612V97.928C449.1 99.016 448.311 99.848 447.244 100.424C446.178 101 444.983 101.288 443.66 101.288C441.57 101.288 439.863 100.648 438.54 99.368C437.218 98.0667 436.556 96.1893 436.556 93.736V83.528H438.764V93.48C438.764 95.3787 439.234 96.8293 440.172 97.832C441.132 98.8347 442.434 99.336 444.076 99.336C445.762 99.336 447.106 98.8027 448.108 97.736C449.111 96.6693 449.612 95.1013 449.612 93.032V83.528H451.852ZM455.942 92.232C455.942 90.44 456.294 88.872 456.998 87.528C457.724 86.1627 458.716 85.1173 459.974 84.392C461.254 83.6453 462.694 83.272 464.294 83.272C465.958 83.272 467.388 83.656 468.582 84.424C469.798 85.192 470.673 86.1733 471.206 87.368V83.528H473.446V101H471.206V97.128C470.652 98.3227 469.766 99.3147 468.55 100.104C467.356 100.872 465.926 101.256 464.262 101.256C462.684 101.256 461.254 100.883 459.974 100.136C458.716 99.3893 457.724 98.3333 456.998 96.968C456.294 95.6027 455.942 94.024 455.942 92.232ZM471.206 92.264C471.206 90.856 470.918 89.6187 470.342 88.552C469.766 87.4853 468.977 86.664 467.974 86.088C466.993 85.512 465.905 85.224 464.71 85.224C463.473 85.224 462.364 85.5013 461.382 86.056C460.401 86.6107 459.622 87.4213 459.046 88.488C458.492 89.5333 458.214 90.7813 458.214 92.232C458.214 93.6613 458.492 94.92 459.046 96.008C459.622 97.0747 460.401 97.896 461.382 98.472C462.364 99.0267 463.473 99.304 464.71 99.304C465.905 99.304 466.993 99.016 467.974 98.44C468.977 97.864 469.766 97.0427 470.342 95.976C470.918 94.9093 471.206 93.672 471.206 92.264ZM480.8 77.32V101H478.56V77.32H480.8ZM484.849 92.232C484.849 90.44 485.201 88.872 485.905 87.528C486.63 86.1627 487.622 85.1173 488.881 84.392C490.161 83.6453 491.601 83.272 493.201 83.272C494.865 83.272 496.294 83.656 497.489 84.424C498.705 85.192 499.579 86.1733 500.113 87.368V83.528H502.353V101H500.113V97.128C499.558 98.3227 498.673 99.3147 497.457 100.104C496.262 100.872 494.833 101.256 493.169 101.256C491.59 101.256 490.161 100.883 488.881 100.136C487.622 99.3893 486.63 98.3333 485.905 96.968C485.201 95.6027 484.849 94.024 484.849 92.232ZM500.113 92.264C500.113 90.856 499.825 89.6187 499.249 88.552C498.673 87.4853 497.883 86.664 496.881 86.088C495.899 85.512 494.811 85.224 493.617 85.224C492.379 85.224 491.27 85.5013 490.289 86.056C489.307 86.6107 488.529 87.4213 487.953 88.488C487.398 89.5333 487.121 90.7813 487.121 92.232C487.121 93.6613 487.398 94.92 487.953 96.008C488.529 97.0747 489.307 97.896 490.289 98.472C491.27 99.0267 492.379 99.304 493.617 99.304C494.811 99.304 495.899 99.016 496.881 98.44C497.883 97.864 498.673 97.0427 499.249 95.976C499.825 94.9093 500.113 93.672 500.113 92.264Z" fill="#474B4B"/>
</g>
<defs>
<filter id="filter0_d_27_47" x="0" y="0" width="636" height="134" filterUnits="userSpaceOnUse" color-interpolation-filters="sRGB">
<feFlood flood-opacity="0" result="BackgroundImageFix"/>
<feColorMatrix in="SourceAlpha" type="matrix" values="0 0 0 0 0 0 0 0 0 0 0 0 0 0 0 0 0 0 127 0" result="hardAlpha"/>
<feOffset dy="4"/>
<feGaussianBlur stdDeviation="2"/>
<feComposite in2="hardAlpha" operator="out"/>
<feColorMatrix type="matrix" values="0 0 0 0 0 0 0 0 0 0 0 0 0 0 0 0 0 0 0.25 0"/>
<feBlend mode="normal" in2="BackgroundImageFix" result="effect1_dropShadow_27_47"/>
<feBlend mode="normal" in="SourceGraphic" in2="effect1_dropShadow_27_47" result="shape"/>
</filter>
</defs>
</svg>
